<svg width="55" height="57" viewBox="0 0 55 57" fill="none" xmlns="http://www.w3.org/2000/svg">
<g id="Group" filter="url(#filter0_d_682_1259)">
<path id="Vector" d="M26.875 44.4616C26.379 44.4556 25.9043 44.2483 25.55 43.8829L11.3 28.8634C10.9873 28.5045 10.8138 28.0352 10.8138 27.5483C10.8138 27.0613 10.9873 26.592 11.3 26.2331L32.275 3.79588C32.6263 3.4258 33.1029 3.21765 33.6 3.21719H47.975C48.4657 3.21719 48.9362 3.42227 49.2832 3.78731C49.6301 4.15234 49.825 4.64744 49.825 5.16368L50 20.1043C50.0007 20.6353 49.8032 21.1454 49.45 21.5247L28.175 43.9093C27.8205 44.2545 27.358 44.451 26.875 44.4616ZM15.25 27.4693L26.875 39.6743L46.25 19.2888L46.125 7.13647H34.4L15.25 27.4693Z" fill="#0E0E0E"/>
<path id="Vector_2" d="M33.875 51.8004C33.628 51.8063 33.3826 51.7578 33.1544 51.6582C32.9263 51.5585 32.7204 51.4099 32.55 51.2217L4.29998 21.5247C3.96878 21.1507 3.78847 20.6561 3.79705 20.145C3.80562 19.6339 4.0024 19.1463 4.34593 18.7848C4.68946 18.4234 5.15292 18.2163 5.63868 18.2073C6.12443 18.1983 6.59455 18.388 6.94998 18.7365L35.2 48.5124C35.5511 48.8823 35.7483 49.3837 35.7483 49.9065C35.7483 50.4293 35.5511 50.9307 35.2 51.3006C34.8382 51.6444 34.362 51.824 33.875 51.8004Z" fill="#0E0E0E"/>
<path id="Vector_3" d="M14.25 51.6426C13.7908 51.634 13.3488 51.4573 13 51.1428L4.37503 42.068C4.19711 41.877 4.05691 41.6508 3.96251 41.4025C3.86811 41.1542 3.82139 40.8887 3.82503 40.6213C3.82503 39.5428 3.82503 39.5165 14.125 28.995C14.4766 28.6255 14.9532 28.418 15.45 28.418C15.9469 28.418 16.4235 28.6255 16.775 28.995C17.1262 29.3649 17.3234 29.8663 17.3234 30.3891C17.3234 30.9119 17.1262 31.4133 16.775 31.7832C13.55 35.1238 10.05 38.7537 8.30003 40.6213L14.25 46.8816L22.65 37.9909C22.8224 37.8048 23.0284 37.6568 23.256 37.5558C23.4836 37.4548 23.728 37.4028 23.975 37.4028C24.222 37.4028 24.4665 37.4548 24.6941 37.5558C24.9216 37.6568 25.1277 37.8048 25.3 37.9909C25.6512 38.3608 25.8484 38.8622 25.8484 39.385C25.8484 39.9078 25.6512 40.4092 25.3 40.7791L15.5 51.1428C15.1535 51.4612 14.7101 51.6385 14.25 51.6426Z" fill="#0E0E0E"/>
</g>
<defs>
<filter id="filter0_d_682_1259" x="0.796753" y="0.217194" width="54.2032" height="56.5853" filterUnits="userSpaceOnUse" color-interpolation-filters="sRGB">
<feFlood flood-opacity="0" result="BackgroundImageFix"/>
<feColorMatrix in="SourceAlpha" type="matrix" values="0 0 0 0 0 0 0 0 0 0 0 0 0 0 0 0 0 0 127 0" result="hardAlpha"/>
<feOffset dx="1" dy="1"/>
<feGaussianBlur stdDeviation="2"/>
<feComposite in2="hardAlpha" operator="out"/>
<feColorMatrix type="matrix" values="0 0 0 0 0 0 0 0 0 0 0 0 0 0 0 0 0 0 1 0"/>
<feBlend mode="normal" in2="BackgroundImageFix" result="effect1_dropShadow_682_1259"/>
<feBlend mode="normal" in="SourceGraphic" in2="effect1_dropShadow_682_1259" result="shape"/>
</filter>
</defs>
</svg>
