<svg width="52" height="58" viewBox="0 0 52 58" fill="none" xmlns="http://www.w3.org/2000/svg">
<g id="Group" filter="url(#filter0_d_682_1229)">
<path id="Vector" d="M45 44.263H5C4.50473 44.2562 4.03157 44.0462 3.68133 43.6777C3.3311 43.3092 3.13147 42.8113 3.125 42.2902V29.1383C3.125 26.5222 4.11272 24.0133 5.87087 22.1634C7.62903 20.3136 10.0136 19.2744 12.5 19.2744H37.5C39.9864 19.2744 42.371 20.3136 44.1291 22.1634C45.8873 24.0133 46.875 26.5222 46.875 29.1383V42.2902C46.8685 42.8113 46.6689 43.3092 46.3187 43.6777C45.9684 44.0462 45.4953 44.2562 45 44.263ZM6.875 40.3174H43.125V29.1383C43.125 27.5686 42.5324 26.0633 41.4775 24.9534C40.4226 23.8435 38.9918 23.2199 37.5 23.2199H12.5C11.0082 23.2199 9.57742 23.8435 8.52252 24.9534C7.46763 26.0633 6.875 27.5686 6.875 29.1383V40.3174Z" fill="#0E0E0E"/>
<path id="Vector_2" d="M13.75 52.1542C12.2582 52.1542 10.8274 51.5306 9.77252 50.4207C8.71763 49.3108 8.125 47.8054 8.125 46.2358V42.2902C8.125 41.767 8.32254 41.2652 8.67417 40.8952C9.02581 40.5253 9.50272 40.3174 10 40.3174C10.4973 40.3174 10.9742 40.5253 11.3258 40.8952C11.6775 41.2652 11.875 41.767 11.875 42.2902V46.2358C11.875 46.759 12.0725 47.2608 12.4242 47.6308C12.7758 48.0007 13.2527 48.2086 13.75 48.2086C14.2473 48.2086 14.7242 48.0007 15.0758 47.6308C15.4275 47.2608 15.625 46.759 15.625 46.2358V42.2902C15.625 41.767 15.8225 41.2652 16.1742 40.8952C16.5258 40.5253 17.0027 40.3174 17.5 40.3174C17.9973 40.3174 18.4742 40.5253 18.8258 40.8952C19.1775 41.2652 19.375 41.767 19.375 42.2902V46.2358C19.375 47.8054 18.7824 49.3108 17.7275 50.4207C16.6726 51.5306 15.2418 52.1542 13.75 52.1542Z" fill="#0E0E0E"/>
<path id="Vector_3" d="M36.25 52.1542C34.7582 52.1542 33.3274 51.5306 32.2725 50.4207C31.2176 49.3108 30.625 47.8054 30.625 46.2358V42.2902C30.625 41.767 30.8225 41.2652 31.1742 40.8952C31.5258 40.5253 32.0027 40.3174 32.5 40.3174C32.9973 40.3174 33.4742 40.5253 33.8258 40.8952C34.1775 41.2652 34.375 41.767 34.375 42.2902V46.2358C34.375 46.759 34.5725 47.2608 34.9242 47.6308C35.2758 48.0007 35.7527 48.2086 36.25 48.2086C36.7473 48.2086 37.2242 48.0007 37.5758 47.6308C37.9275 47.2608 38.125 46.759 38.125 46.2358V42.2902C38.125 41.767 38.3225 41.2652 38.6742 40.8952C39.0258 40.5253 39.5027 40.3174 40 40.3174C40.4973 40.3174 40.9742 40.5253 41.3258 40.8952C41.6775 41.2652 41.875 41.767 41.875 42.2902V46.2358C41.875 47.8054 41.2824 49.3108 40.2275 50.4207C39.1726 51.5306 37.7418 52.1542 36.25 52.1542Z" fill="#0E0E0E"/>
<path id="Vector_4" d="M15 33.7415C14.7506 33.7423 14.5037 33.6885 14.275 33.5836C13.8224 33.3861 13.4628 33.0077 13.275 32.5315C13.1753 32.2909 13.1242 32.0311 13.125 31.7687C13.1447 31.2731 13.3411 30.8035 13.675 30.4535C13.8484 30.2752 14.0519 30.1324 14.275 30.0326C14.5039 29.9284 14.7506 29.8746 15 29.8746C15.2494 29.8746 15.4961 29.9284 15.725 30.0326C15.9481 30.1324 16.1516 30.2752 16.325 30.4535C16.6767 30.8231 16.8746 31.3245 16.875 31.8476C16.8758 32.11 16.8247 32.3698 16.725 32.6104C16.5373 33.0866 16.1776 33.465 15.725 33.6626C15.4906 33.7385 15.2443 33.7653 15 33.7415Z" fill="#0E0E0E"/>
<path id="Vector_5" d="M35 33.7415C34.7508 33.7401 34.5043 33.6864 34.275 33.5836C33.8224 33.3861 33.4628 33.0077 33.275 32.5315C33.1753 32.2909 33.1242 32.0311 33.125 31.7687C33.1254 31.2456 33.3233 30.7442 33.675 30.3746C33.8484 30.1963 34.0519 30.0535 34.275 29.9537C34.5039 29.8495 34.7506 29.7957 35 29.7957C35.2494 29.7957 35.4961 29.8495 35.725 29.9537C35.9481 30.0535 36.1516 30.1963 36.325 30.3746C36.6761 30.7445 36.8734 31.2459 36.8734 31.7687C36.8734 32.2915 36.6761 32.7929 36.325 33.1628C36.1516 33.3411 35.9481 33.4838 35.725 33.5836C35.4963 33.6885 35.2495 33.7423 35 33.7415Z" fill="#0E0E0E"/>
<path id="Vector_6" d="M40 23.2199H10C9.50473 23.2131 9.03157 23.0031 8.68133 22.6346C8.3311 22.2661 8.13147 21.7682 8.125 21.2471V13.356C8.125 10.7399 9.11272 8.23097 10.8709 6.38112C12.629 4.53127 15.0136 3.49203 17.5 3.49203H32.5C34.9864 3.49203 37.371 4.53127 39.1291 6.38112C40.8873 8.23097 41.875 10.7399 41.875 13.356V21.2471C41.8685 21.7682 41.6689 22.2661 41.3187 22.6346C40.9684 23.0031 40.4953 23.2131 40 23.2199ZM11.875 19.2743H38.125V13.356C38.125 11.7863 37.5324 10.281 36.4775 9.17106C35.4226 8.06115 33.9918 7.43761 32.5 7.43761H17.5C16.0082 7.43761 14.5774 8.06115 13.5225 9.17106C12.4676 10.281 11.875 11.7863 11.875 13.356V19.2743Z" fill="#0E0E0E"/>
</g>
<defs>
<filter id="filter0_d_682_1229" x="0.125" y="0.492035" width="51.75" height="56.6621" filterUnits="userSpaceOnUse" color-interpolation-filters="sRGB">
<feFlood flood-opacity="0" result="BackgroundImageFix"/>
<feColorMatrix in="SourceAlpha" type="matrix" values="0 0 0 0 0 0 0 0 0 0 0 0 0 0 0 0 0 0 127 0" result="hardAlpha"/>
<feOffset dx="1" dy="1"/>
<feGaussianBlur stdDeviation="2"/>
<feComposite in2="hardAlpha" operator="out"/>
<feColorMatrix type="matrix" values="0 0 0 0 0 0 0 0 0 0 0 0 0 0 0 0 0 0 1 0"/>
<feBlend mode="normal" in2="BackgroundImageFix" result="effect1_dropShadow_682_1229"/>
<feBlend mode="normal" in="SourceGraphic" in2="effect1_dropShadow_682_1229" result="shape"/>
</filter>
</defs>
</svg>
