<svg width="60" height="34" viewBox="0 0 60 34" fill="none" xmlns="http://www.w3.org/2000/svg">
<g id="Group" filter="url(#filter0_d_682_1248)">
<path id="Vector" d="M15 28.8104C14.6974 28.8066 14.3991 28.7349 14.125 28.6C13.75 28.3895 5.00001 23.3392 3.12501 16.7369C2.55305 15.0589 2.35037 13.2662 2.53225 11.4939C2.71412 9.72148 3.27581 8.01563 4.17501 6.50473C4.85764 5.57022 5.74208 4.8203 6.75507 4.31712C7.76806 3.81395 8.88043 3.57199 10 3.61131C10.9367 3.58762 11.8674 3.77485 12.7298 4.16045C13.5921 4.54606 14.3661 5.12113 15 5.84714C15.6318 5.1184 16.4055 4.54148 17.2683 4.15566C18.1312 3.76984 19.0629 3.58417 20 3.61131C21.1119 3.57612 22.2157 3.82024 23.22 4.32342C24.2243 4.8266 25.1002 5.57436 25.775 6.50473C26.6783 8.01354 27.2444 9.71838 27.4306 11.4908C27.6168 13.2632 27.4183 15.057 26.85 16.7369C24.95 23.4707 16.2 28.3895 15.825 28.6C15.5683 28.7338 15.2865 28.8057 15 28.8104ZM10 7.55689C9.47361 7.51614 8.94592 7.61522 8.4654 7.84502C7.98489 8.07483 7.56696 8.42799 7.25001 8.87208C6.69846 9.89096 6.36965 11.0264 6.28749 12.1957C6.20532 13.3651 6.37187 14.539 6.77501 15.6322C7.87501 19.4199 12.5 22.9972 15 24.5755C17.5 22.9709 22.225 19.3147 23.275 15.6322C23.6782 14.539 23.8447 13.3651 23.7625 12.1957C23.6804 11.0264 23.3516 9.89096 22.8 8.87208C22.4746 8.4312 22.0516 8.08084 21.5679 7.85158C21.0842 7.62232 20.5545 7.52115 20.025 7.55689C19.6114 7.56355 19.2032 7.65724 18.8246 7.83244C18.4459 8.00764 18.1044 8.2608 17.8202 8.57702C17.536 8.89323 17.3148 9.2661 17.1696 9.67365C17.0244 10.0812 16.9583 10.5152 16.975 10.9501C16.9428 11.4689 16.7173 11.9533 16.3475 12.2981C15.9776 12.6429 15.4934 12.8202 15 12.7914C14.5393 12.7724 14.1019 12.5731 13.7735 12.2325C13.4452 11.8919 13.2496 11.4345 13.225 10.9501C13.2427 10.4995 13.1713 10.05 13.0155 9.62992C12.8597 9.20983 12.6227 8.82831 12.3197 8.50944C12.0166 8.19058 11.654 7.94129 11.2547 7.77734C10.8555 7.61339 10.4282 7.53832 10 7.55689Z" fill="#0E0E0E"/>
<path id="Vector_2" d="M45 28.8104C44.7051 28.8097 44.4143 28.7377 44.15 28.6C43.775 28.3895 35.025 23.3392 33.125 16.7369C32.5567 15.057 32.3582 13.2632 32.5444 11.4908C32.7306 9.71839 33.2967 8.01356 34.2 6.50474C34.8774 5.57068 35.7573 4.82067 36.7663 4.31732C37.7752 3.81397 38.884 3.5719 40 3.61132C40.9372 3.58418 41.8689 3.76985 42.7317 4.15567C43.5945 4.5415 44.3682 5.11842 45 5.84715C45.6339 5.12114 46.408 4.54607 47.2703 4.16046C48.1326 3.77486 49.0633 3.58763 50 3.61132C51.1113 3.58041 52.2137 3.82643 53.2174 4.32928C54.221 4.83213 55.0974 5.57757 55.775 6.50474C56.6742 8.01564 57.2359 9.72149 57.4178 11.4939C57.5997 13.2662 57.397 15.0589 56.825 16.7369C54.95 23.4707 46.2 28.3895 45.825 28.6C45.5663 28.7278 45.2857 28.7994 45 28.8104ZM40 7.5569C39.4706 7.52116 38.9409 7.62234 38.4572 7.85159C37.9735 8.08085 37.5504 8.43121 37.225 8.87209C36.6735 9.89097 36.3447 11.0264 36.2625 12.1957C36.1803 13.3651 36.3469 14.539 36.75 15.6322C37.8 19.4199 42.475 22.9973 45.025 24.5755C47.525 22.971 52.25 19.3147 53.3 15.6322C53.7032 14.539 53.8697 13.3651 53.7876 12.1957C53.7054 11.0264 53.3766 9.89097 52.825 8.87209C52.5081 8.42801 52.0902 8.07484 51.6097 7.84503C51.1291 7.61523 50.6014 7.51615 50.075 7.5569C49.6407 7.52694 49.2052 7.59355 48.797 7.7524C48.3887 7.91126 48.0169 8.15878 47.7056 8.47888C47.3943 8.79897 47.1505 9.18445 46.9902 9.61023C46.8299 10.036 46.7566 10.4925 46.775 10.9501C46.7754 11.2045 46.7264 11.4562 46.631 11.6899C46.5356 11.9237 46.3959 12.1344 46.2203 12.3093C46.0448 12.4842 45.8371 12.6195 45.6101 12.7069C45.383 12.7943 45.1414 12.832 44.9 12.8177C44.4173 12.8117 43.9549 12.6126 43.6066 12.2608C43.2584 11.9091 43.0504 11.431 43.025 10.9238C43.0418 10.4924 42.9763 10.0618 42.8324 9.65743C42.6885 9.25306 42.4691 8.88309 42.1872 8.56932C41.9053 8.25555 41.5665 8.00432 41.1909 7.83045C40.8153 7.65657 40.4104 7.56356 40 7.5569Z" fill="#0E0E0E"/>
</g>
<defs>
<filter id="filter0_d_682_1248" x="-0.532471" y="0.607172" width="63.015" height="33.2032" filterUnits="userSpaceOnUse" color-interpolation-filters="sRGB">
<feFlood flood-opacity="0" result="BackgroundImageFix"/>
<feColorMatrix in="SourceAlpha" type="matrix" values="0 0 0 0 0 0 0 0 0 0 0 0 0 0 0 0 0 0 127 0" result="hardAlpha"/>
<feOffset dx="1" dy="1"/>
<feGaussianBlur stdDeviation="2"/>
<feComposite in2="hardAlpha" operator="out"/>
<feColorMatrix type="matrix" values="0 0 0 0 0 0 0 0 0 0 0 0 0 0 0 0 0 0 1 0"/>
<feBlend mode="normal" in2="BackgroundImageFix" result="effect1_dropShadow_682_1248"/>
<feBlend mode="normal" in="SourceGraphic" in2="effect1_dropShadow_682_1248" result="shape"/>
</filter>
</defs>
</svg>
