<svg width="25" height="25" viewBox="0 0 25 25" fill="none" xmlns="http://www.w3.org/2000/svg">
<g id="Golden Star">
<g id="Vector">
<path d="M6.64607 24.2544C6.1009 24.2707 5.56534 24.1082 5.12107 23.7919C4.69219 23.4818 4.37276 23.0436 4.20878 22.5405C4.0448 22.0373 4.04473 21.4951 4.20857 20.9919L5.78357 16.1294C5.82391 16.0019 5.82394 15.8651 5.78368 15.7375C5.74341 15.61 5.66481 15.4981 5.55857 15.4169L1.42107 12.4169C0.971509 12.1102 0.6343 11.6652 0.460647 11.1494C0.286993 10.6336 0.286379 10.0753 0.458898 9.55914C0.631417 9.043 0.967646 8.59725 1.41653 8.28957C1.86542 7.98188 2.40245 7.82908 2.94607 7.85436H8.05857C8.19222 7.85517 8.3226 7.81312 8.43059 7.73437C8.53858 7.65563 8.61848 7.54435 8.65857 7.41686L10.2336 2.54186C10.3998 2.04094 10.7203 1.60548 11.1492 1.29786C11.5781 0.990241 12.0933 0.826243 12.6211 0.829359C13.1489 0.826243 13.6641 0.990241 14.0929 1.29786C14.5218 1.60548 14.8423 2.04094 15.0086 2.54186L16.5836 7.41686C16.6237 7.54435 16.7036 7.65563 16.8116 7.73437C16.9195 7.81312 17.0499 7.85517 17.1836 7.85436H22.2961C22.8285 7.84871 23.3488 8.01317 23.7812 8.3238C24.2136 8.63444 24.5356 9.07501 24.7002 9.58135C24.8648 10.0877 24.8634 10.6334 24.6963 11.1389C24.5292 11.6444 24.205 12.0834 23.7711 12.3919L19.6336 15.4044C19.5269 15.4823 19.4477 15.592 19.4072 15.7178C19.3668 15.8435 19.3673 15.9789 19.4086 16.1044L20.9836 20.9669C21.1585 21.4683 21.1692 22.0124 21.0141 22.5204C20.8591 23.0283 20.5463 23.4736 20.1211 23.7919C19.6929 24.1047 19.1764 24.2733 18.6461 24.2733C18.1158 24.2733 17.5992 24.1047 17.1711 23.7919L13.0461 20.7919C12.9371 20.7126 12.8058 20.6699 12.6711 20.6699C12.5363 20.6699 12.405 20.7126 12.2961 20.7919L8.12107 23.7919C7.69061 24.098 7.17425 24.2599 6.64607 24.2544ZM12.6211 18.7919C13.152 18.7936 13.6687 18.9643 14.0961 19.2794L18.2336 22.2794C18.3426 22.356 18.4729 22.3966 18.6061 22.3954C18.7394 22.3942 18.8689 22.3513 18.9765 22.2727C19.0841 22.194 19.1644 22.0837 19.206 21.9571C19.2476 21.8305 19.2485 21.694 19.2086 21.5669L17.6211 16.6919C17.4543 16.187 17.4529 15.642 17.617 15.1362C17.7811 14.6305 18.1021 14.1902 18.5336 13.8794L22.6211 10.8794C22.7336 10.8035 22.8172 10.6918 22.858 10.5624C22.8989 10.433 22.8947 10.2936 22.8461 10.1669C22.8078 10.0383 22.7283 9.92585 22.6199 9.84682C22.5115 9.76778 22.3802 9.72651 22.2461 9.72936H17.1836C16.6564 9.72897 16.1428 9.56193 15.7163 9.25212C15.2897 8.94231 14.972 8.50558 14.8086 8.00436L13.2211 3.14186C13.1847 3.01217 13.1057 2.8985 12.9969 2.81914C12.888 2.73978 12.7557 2.69935 12.6211 2.70436C12.4865 2.69935 12.3541 2.73978 12.2453 2.81914C12.1364 2.8985 12.0575 3.01217 12.0211 3.14186L10.4336 7.99186C10.2723 8.49541 9.95554 8.93487 9.5288 9.24707C9.10205 9.55926 8.58732 9.72811 8.05857 9.72936H2.94607C2.81195 9.72651 2.68061 9.76778 2.57221 9.84682C2.46382 9.92585 2.38437 10.0383 2.34607 10.1669C2.29747 10.2936 2.29326 10.433 2.33413 10.5624C2.37499 10.6918 2.45852 10.8035 2.57107 10.8794L6.70857 13.8794C7.14 14.1902 7.46109 14.6305 7.62519 15.1362C7.78929 15.642 7.78784 16.187 7.62107 16.6919L6.03357 21.5419C5.99362 21.669 5.99452 21.8055 6.03614 21.9321C6.07776 22.0587 6.15802 22.169 6.26562 22.2477C6.37322 22.3263 6.50276 22.3692 6.63602 22.3704C6.76928 22.3716 6.89957 22.331 7.00857 22.2544L11.1461 19.2544C11.5765 18.9482 12.0929 18.7863 12.6211 18.7919Z" fill="#D4B26A"/>
<path d="M12.6211 18.7919C13.152 18.7936 13.6687 18.9643 14.0961 19.2794L18.2336 22.2794C18.3426 22.356 18.4729 22.3966 18.6061 22.3954C18.7394 22.3942 18.8689 22.3513 18.9765 22.2727C19.0841 22.194 19.1644 22.0837 19.206 21.9571C19.2476 21.8305 19.2485 21.694 19.2086 21.5669L17.6211 16.6919C17.4543 16.187 17.4529 15.642 17.617 15.1362C17.7811 14.6305 18.1021 14.1902 18.5336 13.8794L22.6211 10.8794C22.7336 10.8035 22.8172 10.6918 22.858 10.5624C22.8989 10.433 22.8947 10.2936 22.8461 10.1669C22.8078 10.0383 22.7283 9.92585 22.6199 9.84682C22.5115 9.76778 22.3802 9.72651 22.2461 9.72936H17.1836C16.6564 9.72897 16.1428 9.56193 15.7163 9.25212C15.2897 8.94231 14.972 8.50558 14.8086 8.00436L13.2211 3.14186C13.1847 3.01217 13.1057 2.8985 12.9969 2.81914C12.888 2.73978 12.7557 2.69935 12.6211 2.70436C12.4865 2.69935 12.3541 2.73978 12.2453 2.81914C12.1364 2.8985 12.0575 3.01217 12.0211 3.14186L10.4336 7.99186C10.2723 8.49541 9.95554 8.93487 9.5288 9.24707C9.10205 9.55926 8.58732 9.72811 8.05857 9.72936H2.94607C2.81195 9.72651 2.68061 9.76778 2.57221 9.84682C2.46382 9.92585 2.38437 10.0383 2.34607 10.1669C2.29747 10.2936 2.29326 10.433 2.33413 10.5624C2.37499 10.6918 2.45852 10.8035 2.57107 10.8794L6.70857 13.8794C7.14 14.1902 7.46109 14.6305 7.62519 15.1362C7.78929 15.642 7.78784 16.187 7.62107 16.6919L6.03357 21.5419C5.99362 21.669 5.99452 21.8055 6.03614 21.9321C6.07776 22.0587 6.15802 22.169 6.26562 22.2477C6.37322 22.3263 6.50276 22.3692 6.63602 22.3704C6.76928 22.3716 6.89957 22.331 7.00857 22.2544L11.1461 19.2544C11.5765 18.9482 12.0929 18.7863 12.6211 18.7919Z" fill="#D4B26A"/>
</g>
</g>
</svg>
