<svg width="58" height="59" viewBox="0 0 58 59" fill="none" xmlns="http://www.w3.org/2000/svg">
<g id="Group" filter="url(#filter0_d_682_1222)">
<path id="Vector" d="M16.05 53.2113C14.9596 53.2457 13.8885 52.9039 13 52.2381C12.1422 51.5856 11.5033 50.6636 11.1754 49.6048C10.8474 48.546 10.8473 47.4049 11.175 46.346L14.325 36.1138C14.4056 35.8456 14.4057 35.5576 14.3252 35.2893C14.2446 35.021 14.0874 34.7854 13.875 34.6145L5.59995 28.3016C4.70083 27.6562 4.02641 26.7198 3.67911 25.6344C3.3318 24.5491 3.33057 23.3742 3.67561 22.2881C4.02065 21.2019 4.69311 20.2639 5.59088 19.6165C6.48865 18.969 7.56271 18.6475 8.64995 18.7007H18.875C19.1422 18.7024 19.403 18.6139 19.619 18.4482C19.835 18.2825 19.9948 18.0483 20.075 17.78L23.225 7.52154C23.5574 6.46744 24.1985 5.5511 25.0562 4.90378C25.9139 4.25645 26.9444 3.91135 28 3.91791C29.0555 3.91135 30.086 4.25645 30.9437 4.90378C31.8014 5.5511 32.4425 6.46744 32.775 7.52154L35.925 17.78C36.0051 18.0483 36.1649 18.2825 36.3809 18.4482C36.5969 18.6139 36.8577 18.7024 37.125 18.7007H47.35C48.4147 18.6888 49.4553 19.0349 50.3202 19.6885C51.185 20.3422 51.8289 21.2693 52.1581 22.3348C52.4873 23.4003 52.4846 24.5486 52.1504 25.6123C51.8162 26.6761 51.1679 27.5998 50.3 28.249L42.025 34.5882C41.8116 34.7522 41.6532 34.9831 41.5723 35.2477C41.4915 35.5124 41.4924 35.7972 41.575 36.0612L44.725 46.2934C45.0748 47.3486 45.0962 48.4936 44.7861 49.5625C44.4759 50.6313 43.8503 51.5685 43 52.2381C42.1436 52.8965 41.1105 53.2513 40.05 53.2513C38.9894 53.2513 37.9563 52.8965 37.1 52.2381L28.85 45.9252C28.632 45.7584 28.3694 45.6685 28.1 45.6685C27.8305 45.6685 27.5679 45.7584 27.35 45.9252L19 52.2381C18.139 52.8823 17.1063 53.223 16.05 53.2113ZM28 41.7165C29.0619 41.7202 30.0951 42.0795 30.95 42.7424L39.225 49.0553C39.4429 49.2167 39.7035 49.3021 39.9701 49.2996C40.2366 49.2971 40.4957 49.2067 40.7109 49.0413C40.9261 48.8758 41.0866 48.6435 41.1698 48.3771C41.2531 48.1107 41.2549 47.8235 41.175 47.556L38 37.2975C37.6664 36.235 37.6635 35.0883 37.9917 34.024C38.3199 32.9597 38.9621 32.0332 39.825 31.3791L48 25.0662C48.2251 24.9067 48.3921 24.6716 48.4738 24.3992C48.5556 24.1269 48.5471 23.8335 48.45 23.5669C48.3734 23.2963 48.2145 23.0597 47.9977 22.8934C47.7809 22.7271 47.5182 22.6403 47.25 22.6463H37.125C36.0706 22.6454 35.0434 22.2939 34.1903 21.642C33.3372 20.9901 32.7018 20.071 32.375 19.0163L29.2 8.78412C29.1272 8.51122 28.9692 8.27202 28.7516 8.10502C28.5339 7.93802 28.2692 7.85295 28 7.86349C27.7307 7.85295 27.466 7.93802 27.2483 8.10502C27.0307 8.27202 26.8727 8.51122 26.8 8.78412L23.625 18.99C23.3024 20.0496 22.6689 20.9744 21.8154 21.6314C20.9619 22.2883 19.9324 22.6436 18.875 22.6463H8.64995C8.38172 22.6403 8.11902 22.7271 7.90224 22.8934C7.68545 23.0597 7.52655 23.2963 7.44995 23.5669C7.35276 23.8335 7.34434 24.1269 7.42607 24.3992C7.5078 24.6716 7.67485 24.9067 7.89995 25.0662L16.175 31.3791C17.0378 32.0332 17.68 32.9597 18.0082 34.024C18.3364 35.0883 18.3335 36.235 18 37.2975L14.825 47.5034C14.7451 47.7709 14.7468 48.0581 14.8301 48.3245C14.9133 48.5909 15.0738 48.8232 15.289 48.9887C15.5042 49.1541 15.7633 49.2445 16.0299 49.247C16.2964 49.2495 16.557 49.1641 16.775 49.0027L25.05 42.6898C25.9109 42.0456 26.9436 41.7049 28 41.7165Z" fill="#0E0E0E"/>
</g>
<defs>
<filter id="filter0_d_682_1222" x="0.417725" y="0.917816" width="56.9854" height="57.3335" filterUnits="userSpaceOnUse" color-interpolation-filters="sRGB">
<feFlood flood-opacity="0" result="BackgroundImageFix"/>
<feColorMatrix in="SourceAlpha" type="matrix" values="0 0 0 0 0 0 0 0 0 0 0 0 0 0 0 0 0 0 127 0" result="hardAlpha"/>
<feOffset dx="1" dy="1"/>
<feGaussianBlur stdDeviation="2"/>
<feComposite in2="hardAlpha" operator="out"/>
<feColorMatrix type="matrix" values="0 0 0 0 0 0 0 0 0 0 0 0 0 0 0 0 0 0 1 0"/>
<feBlend mode="normal" in2="BackgroundImageFix" result="effect1_dropShadow_682_1222"/>
<feBlend mode="normal" in="SourceGraphic" in2="effect1_dropShadow_682_1222" result="shape"/>
</filter>
</defs>
</svg>
