<svg width="56" height="42" viewBox="0 0 56 42" fill="none" xmlns="http://www.w3.org/2000/svg">
<g id="Group" filter="url(#filter0_d_682_1242)">
<path id="Vector" d="M19.95 22.0543H5.82495C5.32968 22.0475 4.85652 21.8375 4.50629 21.4689C4.15605 21.1004 3.95643 20.6026 3.94995 20.0815V5.667C3.94995 5.14378 4.1475 4.64199 4.49913 4.27202C4.85076 3.90205 5.32767 3.69421 5.82495 3.69421H19.95C20.4472 3.69421 20.9241 3.90205 21.2758 4.27202C21.6274 4.64199 21.825 5.14378 21.825 5.667V20.0815C21.8185 20.6026 21.6189 21.1004 21.2686 21.4689C20.9184 21.8375 20.4452 22.0475 19.95 22.0543ZM7.69995 18.1087H18.075V7.58718H7.69995V18.1087Z" fill="#0E0E0E"/>
<path id="Vector_2" d="M34.05 22.0544H19.95C19.4527 22.0544 18.9758 21.8466 18.6242 21.4766C18.2725 21.1066 18.075 20.6048 18.075 20.0816V5.66711C18.0716 5.40706 18.1178 5.14893 18.2109 4.90799C18.3039 4.66704 18.4419 4.44815 18.6167 4.26425C18.7915 4.08035 18.9995 3.93517 19.2285 3.83728C19.4575 3.73939 19.7028 3.69078 19.95 3.69432H34.05C34.2972 3.69078 34.5425 3.73939 34.7715 3.83728C35.0005 3.93517 35.2085 4.08035 35.3833 4.26425C35.5581 4.44815 35.6961 4.66704 35.7891 4.90799C35.8822 5.14893 35.9284 5.40706 35.925 5.66711V20.0816C35.925 20.6048 35.7275 21.1066 35.3758 21.4766C35.0242 21.8466 34.5473 22.0544 34.05 22.0544ZM21.825 18.1088H32.175V7.58729H21.825V18.1088Z" fill="#0E0E0E"/>
<path id="Vector_3" d="M48.1749 22.0544H34.0499C33.5547 22.0476 33.0815 21.8376 32.7313 21.4691C32.381 21.1006 32.1814 20.6027 32.1749 20.0816V5.66711C32.1749 5.14389 32.3725 4.64211 32.7241 4.27214C33.0757 3.90217 33.5526 3.69432 34.0499 3.69432H48.1749C48.6722 3.69432 49.1491 3.90217 49.5008 4.27214C49.8524 4.64211 50.0499 5.14389 50.0499 5.66711V20.0816C50.0435 20.6027 49.8438 21.1006 49.4936 21.4691C49.1434 21.8376 48.6702 22.0476 48.1749 22.0544ZM35.9249 18.1088H46.2999V7.58729H35.9249V18.1088Z" fill="#0E0E0E"/>
<path id="Vector_4" d="M34.05 36.4689H19.95C19.7028 36.4725 19.4575 36.4238 19.2285 36.326C18.9995 36.2281 18.7915 36.0829 18.6167 35.899C18.4419 35.7151 18.3039 35.4962 18.2109 35.2552C18.1178 35.0143 18.0716 34.7562 18.075 34.4961V20.0816C18.075 19.5584 18.2725 19.0566 18.6242 18.6866C18.9758 18.3167 19.4527 18.1088 19.95 18.1088H34.05C34.5473 18.1088 35.0242 18.3167 35.3758 18.6866C35.7275 19.0566 35.925 19.5584 35.925 20.0816V34.4961C35.9284 34.7562 35.8822 35.0143 35.7891 35.2552C35.6961 35.4962 35.5581 35.7151 35.3833 35.899C35.2085 36.0829 35.0005 36.2281 34.7715 36.326C34.5425 36.4238 34.2972 36.4725 34.05 36.4689ZM21.825 32.5233H32.175V22.0018H21.825V32.5233Z" fill="#0E0E0E"/>
</g>
<defs>
<filter id="filter0_d_682_1242" x="0.949951" y="0.694138" width="54.1" height="40.775" filterUnits="userSpaceOnUse" color-interpolation-filters="sRGB">
<feFlood flood-opacity="0" result="BackgroundImageFix"/>
<feColorMatrix in="SourceAlpha" type="matrix" values="0 0 0 0 0 0 0 0 0 0 0 0 0 0 0 0 0 0 127 0" result="hardAlpha"/>
<feOffset dx="1" dy="1"/>
<feGaussianBlur stdDeviation="2"/>
<feComposite in2="hardAlpha" operator="out"/>
<feColorMatrix type="matrix" values="0 0 0 0 0 0 0 0 0 0 0 0 0 0 0 0 0 0 1 0"/>
<feBlend mode="normal" in2="BackgroundImageFix" result="effect1_dropShadow_682_1242"/>
<feBlend mode="normal" in="SourceGraphic" in2="effect1_dropShadow_682_1242" result="shape"/>
</filter>
</defs>
</svg>
