<svg width="43" height="64" viewBox="0 0 43 64" fill="none" xmlns="http://www.w3.org/2000/svg">
<g id="Group" filter="url(#filter0_d_682_1225)">
<path id="Vector" d="M35.125 59.9179H5C4.74762 59.9357 4.49442 59.8996 4.25564 59.8118C4.01686 59.724 3.79745 59.5862 3.6106 59.4068C3.42375 59.2274 3.27333 59.0101 3.16839 58.7679C3.06346 58.5258 3.00618 58.2638 3 57.9977V5.39C3.00618 5.12394 3.06346 4.86194 3.16839 4.61978C3.27333 4.37762 3.42375 4.1603 3.6106 3.98091C3.79745 3.80152 4.01686 3.66376 4.25564 3.57593C4.49442 3.48809 4.74762 3.452 5 3.46982H35.25C35.7473 3.46982 36.2242 3.67767 36.5758 4.04764C36.9275 4.41761 37.125 4.91939 37.125 5.44261C37.125 5.96583 36.9275 6.46761 36.5758 6.83758C36.2242 7.20755 35.7473 7.4154 35.25 7.4154H16.75V29.6422L35.575 34.7451C35.9804 34.8552 36.3399 35.1032 36.5976 35.4504C36.8553 35.7977 36.9968 36.2247 37 36.6653V57.9977C36.987 58.5118 36.7837 59.0001 36.4335 59.3588C36.0832 59.7175 35.6137 59.9181 35.125 59.9179ZM6.75 55.9723H33.25V38.1909L14.425 32.9301C14.0195 32.8294 13.6581 32.5876 13.3995 32.2439C13.1409 31.9002 13.0001 31.4747 13 31.0363V7.36279H6.75V55.9723Z" fill="#0E0E0E"/>
<path id="Vector_2" d="M28.25 36.7705C28.0517 36.8085 27.8484 36.8085 27.65 36.7705C27.4022 36.6889 27.1732 36.554 26.9775 36.3743C26.7818 36.1947 26.6237 35.9742 26.5132 35.7269C26.4028 35.4796 26.3423 35.2109 26.3357 34.9377C26.3292 34.6646 26.3766 34.393 26.475 34.1401L28.225 28.59C28.2875 28.3265 28.401 28.0794 28.5584 27.8642C28.7158 27.649 28.9138 27.4703 29.1398 27.3393C29.3659 27.2083 29.6153 27.1279 29.8723 27.103C30.1293 27.078 30.3884 27.1092 30.6335 27.1946C30.8785 27.2799 31.1041 27.4175 31.2963 27.5988C31.4884 27.7802 31.6429 28.0013 31.75 28.2483C31.8572 28.4954 31.9147 28.763 31.919 29.0346C31.9233 29.3061 31.8743 29.5756 31.775 29.8263L30 35.429C29.876 35.8155 29.6411 36.1521 29.3277 36.3924C29.0143 36.6326 28.6378 36.7647 28.25 36.7705Z" fill="#0E0E0E"/>
</g>
<defs>
<filter id="filter0_d_682_1225" x="0" y="0.465393" width="42.125" height="64.4569" filterUnits="userSpaceOnUse" color-interpolation-filters="sRGB">
<feFlood flood-opacity="0" result="BackgroundImageFix"/>
<feColorMatrix in="SourceAlpha" type="matrix" values="0 0 0 0 0 0 0 0 0 0 0 0 0 0 0 0 0 0 127 0" result="hardAlpha"/>
<feOffset dx="1" dy="1"/>
<feGaussianBlur stdDeviation="2"/>
<feComposite in2="hardAlpha" operator="out"/>
<feColorMatrix type="matrix" values="0 0 0 0 0 0 0 0 0 0 0 0 0 0 0 0 0 0 1 0"/>
<feBlend mode="normal" in2="BackgroundImageFix" result="effect1_dropShadow_682_1225"/>
<feBlend mode="normal" in="SourceGraphic" in2="effect1_dropShadow_682_1225" result="shape"/>
</filter>
</defs>
</svg>
