<svg width="48" height="64" viewBox="0 0 48 64" fill="none" xmlns="http://www.w3.org/2000/svg">
<g id="Group" filter="url(#filter0_d_682_1281)">
<path id="Vector" d="M32.3749 51.3746C32.1335 51.3757 31.8947 51.3219 31.6749 51.2168C31.4411 51.1237 31.2282 50.9804 31.0499 50.7959C30.6982 50.4263 30.5004 49.9249 30.4999 49.4018C30.4992 49.1394 30.5503 48.8796 30.6499 48.639C30.7448 48.4043 30.8805 48.1902 31.0499 48.0077C31.2282 47.8233 31.4411 47.68 31.6749 47.5869C32.014 47.4374 32.3877 47.3976 32.7484 47.4725C33.1091 47.5475 33.4404 47.7338 33.7 48.0077C34.0517 48.3774 34.2495 48.8788 34.2499 49.4018C34.2555 49.6617 34.2095 49.9199 34.1148 50.16C34.0201 50.4 33.8788 50.6166 33.7 50.7959C33.5266 50.9743 33.3231 51.117 33.1 51.2168C32.8713 51.3217 32.6244 51.3754 32.3749 51.3746Z" fill="#0E0E0E"/>
<path id="Vector_2" d="M32.375 42.8259C31.879 42.8198 31.4043 42.6125 31.05 42.2472C30.7846 41.9719 30.6044 41.6187 30.533 41.2338C30.4616 40.849 30.5024 40.4504 30.65 40.0903C30.7449 39.8555 30.8805 39.6414 31.05 39.459C31.2283 39.2746 31.4411 39.1312 31.675 39.0381C32.0152 38.8955 32.3873 38.8593 32.7466 38.934C33.1058 39.0087 33.4369 39.191 33.7 39.459C34.0472 39.8318 34.2442 40.3312 34.25 40.8531C34.2556 41.113 34.2095 41.3712 34.1148 41.6112C34.0201 41.8513 33.8788 42.0679 33.7 42.2472C33.5266 42.4255 33.3231 42.5683 33.1 42.6681C32.8713 42.773 32.6244 42.8267 32.375 42.8259Z" fill="#0E0E0E"/>
<path id="Vector_3" d="M31.4 60.1338H5.34998C4.85269 60.1338 4.37578 59.926 4.02415 59.556C3.67252 59.186 3.47498 58.6842 3.47498 58.161V5.55332C3.47498 5.03011 3.67252 4.52832 4.02415 4.15835C4.37578 3.78838 4.85269 3.58054 5.34998 3.58054H40.65C41.1473 3.58054 41.6242 3.78838 41.9758 4.15835C42.3274 4.52832 42.525 5.03011 42.525 5.55332V48.4023C42.525 51.5091 41.3537 54.4891 39.2681 56.6885C37.1824 58.8878 34.3528 60.1269 31.4 60.1338ZM7.22498 56.1882H31.4C33.3674 56.1537 35.2431 55.3071 36.6227 53.831C38.0023 52.3548 38.7752 50.3674 38.775 48.2971V7.52611H7.22498V56.1882Z" fill="#0E0E0E"/>
<path id="Vector_4" d="M17.6749 51.3746C17.1797 51.3678 16.7065 51.1578 16.3563 50.7893C16.006 50.4208 15.8064 49.923 15.7999 49.4019V40.8531C15.7999 40.3299 15.9975 39.8281 16.3491 39.4581C16.7007 39.0882 17.1776 38.8803 17.6749 38.8803C18.1722 38.8803 18.6491 39.0882 19.0008 39.4581C19.3524 39.8281 19.5499 40.3299 19.5499 40.8531V49.4019C19.5499 49.9251 19.3524 50.4269 19.0008 50.7968C18.6491 51.1668 18.1722 51.3746 17.6749 51.3746Z" fill="#0E0E0E"/>
<path id="Vector_5" d="M21.75 47.0871H13.625C13.1277 47.0871 12.6508 46.8793 12.2992 46.5093C11.9475 46.1393 11.75 45.6375 11.75 45.1143C11.75 44.5911 11.9475 44.0893 12.2992 43.7194C12.6508 43.3494 13.1277 43.1415 13.625 43.1415H21.75C22.2473 43.1415 22.7242 43.3494 23.0758 43.7194C23.4275 44.0893 23.625 44.5911 23.625 45.1143C23.625 45.6375 23.4275 46.1393 23.0758 46.5093C22.7242 46.8793 22.2473 47.0871 21.75 47.0871Z" fill="#0E0E0E"/>
<path id="Vector_6" d="M33.5999 33.9352H12.4499C12.1898 33.9426 11.931 33.8937 11.6896 33.7916C11.4481 33.6894 11.2292 33.5362 11.0464 33.3414C10.8636 33.1465 10.7207 32.9143 10.6267 32.659C10.5327 32.4037 10.4896 32.1308 10.4999 31.8572V12.6028C10.5064 12.0817 10.706 11.5838 11.0563 11.2153C11.4065 10.8468 11.8797 10.6368 12.3749 10.63H33.5249C34.0222 10.63 34.4991 10.8378 34.8507 11.2078C35.2024 11.5778 35.3999 12.0795 35.3999 12.6028V31.8572C35.4134 32.1185 35.3773 32.3799 35.2938 32.6264C35.2103 32.8728 35.081 33.0994 34.9135 33.2927C34.7459 33.4861 34.5435 33.6425 34.318 33.7528C34.0925 33.8631 33.8484 33.9251 33.5999 33.9352ZM14.3249 29.9896H31.8249V14.5756H14.3249V29.9896Z" fill="#0E0E0E"/>
</g>
<defs>
<filter id="filter0_d_682_1281" x="0.474976" y="0.580536" width="47.05" height="64.5533" filterUnits="userSpaceOnUse" color-interpolation-filters="sRGB">
<feFlood flood-opacity="0" result="BackgroundImageFix"/>
<feColorMatrix in="SourceAlpha" type="matrix" values="0 0 0 0 0 0 0 0 0 0 0 0 0 0 0 0 0 0 127 0" result="hardAlpha"/>
<feOffset dx="1" dy="1"/>
<feGaussianBlur stdDeviation="2"/>
<feComposite in2="hardAlpha" operator="out"/>
<feColorMatrix type="matrix" values="0 0 0 0 0 0 0 0 0 0 0 0 0 0 0 0 0 0 1 0"/>
<feBlend mode="normal" in2="BackgroundImageFix" result="effect1_dropShadow_682_1281"/>
<feBlend mode="normal" in="SourceGraphic" in2="effect1_dropShadow_682_1281" result="shape"/>
</filter>
</defs>
</svg>
