<svg width="60" height="60" viewBox="0 0 60 60" fill="none" xmlns="http://www.w3.org/2000/svg">
<g id="Group" filter="url(#filter0_d_682_1237)">
<path id="Vector" d="M17.5 54.5986C15.6766 54.5986 13.928 53.8365 12.6386 52.48C11.3493 51.1234 10.625 49.2835 10.625 47.3651V36.8435C10.625 34.9251 11.3493 33.0852 12.6386 31.7286C13.928 30.3721 15.6766 29.61 17.5 29.61C19.3234 29.61 21.072 30.3721 22.3614 31.7286C23.6507 33.0852 24.375 34.9251 24.375 36.8435V47.3651C24.375 49.2835 23.6507 51.1234 22.3614 52.48C21.072 53.8365 19.3234 54.5986 17.5 54.5986ZM17.5 33.5555C16.6712 33.5555 15.8763 33.902 15.2903 34.5186C14.7042 35.1352 14.375 35.9715 14.375 36.8435V47.3651C14.375 48.2371 14.7042 49.0734 15.2903 49.69C15.8763 50.3066 16.6712 50.6531 17.5 50.6531C18.3288 50.6531 19.1237 50.3066 19.7097 49.69C20.2958 49.0734 20.625 48.2371 20.625 47.3651V36.8435C20.625 35.9715 20.2958 35.1352 19.7097 34.5186C19.1237 33.902 18.3288 33.5555 17.5 33.5555Z" fill="#0E0E0E"/>
<path id="Vector_2" d="M42.5 54.5986C40.6766 54.5986 38.928 53.8365 37.6386 52.48C36.3493 51.1234 35.625 49.2835 35.625 47.3651V36.8435C35.625 34.9251 36.3493 33.0852 37.6386 31.7286C38.928 30.3721 40.6766 29.61 42.5 29.61C44.3234 29.61 46.072 30.3721 47.3614 31.7286C48.6507 33.0852 49.375 34.9251 49.375 36.8435V47.3651C49.375 49.2835 48.6507 51.1234 47.3614 52.48C46.072 53.8365 44.3234 54.5986 42.5 54.5986ZM42.5 33.5555C41.6712 33.5555 40.8763 33.902 40.2903 34.5186C39.7042 35.1352 39.375 35.9715 39.375 36.8435V47.3651C39.375 48.2371 39.7042 49.0734 40.2903 49.69C40.8763 50.3066 41.6712 50.6531 42.5 50.6531C43.3288 50.6531 44.1237 50.3066 44.7097 49.69C45.2958 49.0734 45.625 48.2371 45.625 47.3651V36.8435C45.625 35.9715 45.2958 35.1352 44.7097 34.5186C44.1237 33.902 43.3288 33.5555 42.5 33.5555Z" fill="#0E0E0E"/>
<path id="Vector_3" d="M55 44.0771C54.5047 44.0703 54.0316 43.8602 53.6813 43.4917C53.3311 43.1232 53.1315 42.6254 53.125 42.1043V31.5828C53.125 25.1298 50.6886 18.9411 46.3518 14.3781C42.0151 9.81514 36.1331 7.2517 30 7.2517C23.8669 7.2517 17.9849 9.81514 13.6482 14.3781C9.31138 18.9411 6.875 25.1298 6.875 31.5828V42.1043C6.875 42.6275 6.67746 43.1293 6.32583 43.4993C5.97419 43.8693 5.49728 44.0771 5 44.0771C4.50272 44.0771 4.02581 43.8693 3.67417 43.4993C3.32254 43.1293 3.125 42.6275 3.125 42.1043V31.5828C3.125 24.0833 5.95647 16.8911 10.9965 11.5882C16.0365 6.28526 22.8723 3.30612 30 3.30612C37.1277 3.30612 43.9635 6.28526 49.0035 11.5882C54.0435 16.8911 56.875 24.0833 56.875 31.5828V42.1043C56.8685 42.6254 56.6689 43.1232 56.3187 43.4917C55.9684 43.8602 55.4953 44.0703 55 44.0771Z" fill="#0E0E0E"/>
</g>
<defs>
<filter id="filter0_d_682_1237" x="0.125" y="0.306122" width="61.75" height="59.2925" filterUnits="userSpaceOnUse" color-interpolation-filters="sRGB">
<feFlood flood-opacity="0" result="BackgroundImageFix"/>
<feColorMatrix in="SourceAlpha" type="matrix" values="0 0 0 0 0 0 0 0 0 0 0 0 0 0 0 0 0 0 127 0" result="hardAlpha"/>
<feOffset dx="1" dy="1"/>
<feGaussianBlur stdDeviation="2"/>
<feComposite in2="hardAlpha" operator="out"/>
<feColorMatrix type="matrix" values="0 0 0 0 0 0 0 0 0 0 0 0 0 0 0 0 0 0 1 0"/>
<feBlend mode="normal" in2="BackgroundImageFix" result="effect1_dropShadow_682_1237"/>
<feBlend mode="normal" in="SourceGraphic" in2="effect1_dropShadow_682_1237" result="shape"/>
</filter>
</defs>
</svg>
