<svg width="60" height="64" viewBox="0 0 60 64" fill="none" xmlns="http://www.w3.org/2000/svg">
<g id="Group" filter="url(#filter0_d_682_1272)">
<path id="Vector" d="M17.2251 32.1488C16.8521 32.1531 16.4863 32.0403 16.1746 31.8248C15.8628 31.6092 15.6193 31.3008 15.4751 30.9388C15.3754 30.6982 15.3243 30.4384 15.3251 30.176C15.3255 29.6529 15.5234 29.1515 15.8751 28.7819C16.0534 28.5974 16.2662 28.4541 16.5001 28.361C16.8392 28.2115 17.2129 28.1717 17.5736 28.2467C17.9342 28.3216 18.2655 28.508 18.5251 28.7819C18.8762 29.1518 19.0734 29.6532 19.0734 30.176C19.0734 30.6988 18.8762 31.2002 18.5251 31.5701C18.3558 31.7525 18.1536 31.8977 17.9304 31.997C17.7072 32.0964 17.4674 32.148 17.2251 32.1488Z" fill="#0E0E0E"/>
<path id="Vector_2" d="M24.325 39.619C24.0859 39.6715 23.8391 39.6715 23.6 39.619C23.3769 39.5192 23.1734 39.3765 23 39.1982C22.7679 38.9882 22.595 38.7152 22.5 38.4091C22.4508 38.1574 22.4508 37.8979 22.5 37.6463C22.5058 37.1244 22.7028 36.6249 23.05 36.2522C23.2296 36.0821 23.4317 35.9403 23.65 35.8313C23.9081 35.716 24.1875 35.6631 24.4676 35.6764C24.7476 35.6898 25.0213 35.769 25.2685 35.9084C25.5156 36.0477 25.7299 36.2436 25.8955 36.4816C26.0612 36.7196 26.174 36.9937 26.2257 37.2836C26.2773 37.5736 26.2665 37.872 26.1941 38.157C26.1216 38.442 25.9893 38.7062 25.807 38.9303C25.6246 39.1544 25.3968 39.3326 25.1403 39.4518C24.8839 39.571 24.6053 39.6281 24.325 39.619Z" fill="#0E0E0E"/>
<path id="Vector_3" d="M35.6 27.756C35.3586 27.7571 35.1198 27.7033 34.9 27.5982C34.6662 27.5051 34.4533 27.3618 34.275 27.1773C33.9233 26.8077 33.7255 26.3063 33.725 25.7832C33.7243 25.5208 33.7753 25.261 33.875 25.0204C33.9699 24.7856 34.1056 24.5716 34.275 24.3891C34.4744 24.18 34.7256 24.0342 35 23.9683C35.3391 23.8188 35.7128 23.779 36.0735 23.8539C36.4342 23.9289 36.7655 24.1152 37.025 24.3891C37.2869 24.665 37.4652 25.0164 37.5375 25.3988C37.6097 25.7813 37.5725 26.1777 37.4308 26.5379C37.289 26.8982 37.0489 27.2062 36.7409 27.423C36.4328 27.6398 36.0706 27.7557 35.7 27.756H35.6Z" fill="#0E0E0E"/>
<path id="Vector_4" d="M28.5001 20.2857C28.003 20.2853 27.5264 20.0771 27.1751 19.7071C26.9967 19.5221 26.86 19.2974 26.7751 19.0495C26.6781 18.8172 26.627 18.5666 26.6251 18.3129C26.6225 18.0535 26.6699 17.7963 26.7644 17.5567C26.859 17.317 26.9987 17.1001 27.1751 16.9188C27.5328 16.5618 28.007 16.3627 28.5001 16.3627C28.9932 16.3627 29.4674 16.5618 29.8251 16.9188C30.1768 17.2885 30.3747 17.7899 30.3751 18.3129C30.3693 18.8349 30.1723 19.3343 29.8251 19.7071C29.4738 20.0771 28.9972 20.2853 28.5001 20.2857Z" fill="#0E0E0E"/>
<path id="Vector_5" d="M31.3501 47.0367C30.8454 47.0375 30.3606 46.8297 30.0001 46.4581C29.6489 46.0882 29.4517 45.5867 29.4517 45.064C29.4517 44.5412 29.6489 44.0398 30.0001 43.6699C30.1716 43.4767 30.3865 43.332 30.6251 43.249C30.9641 43.0995 31.3379 43.0597 31.6985 43.1346C32.0592 43.2096 32.3905 43.3959 32.6501 43.6699C32.912 43.9457 33.0903 44.2971 33.1625 44.6796C33.2347 45.062 33.1976 45.4584 33.0558 45.8187C32.914 46.1789 32.6739 46.4869 32.3659 46.7037C32.0579 46.9205 31.6957 47.0364 31.3251 47.0367H31.3501Z" fill="#0E0E0E"/>
<path id="Vector_6" d="M42.65 35.1474C42.1529 35.1469 41.6763 34.9388 41.325 34.5687C41.1479 34.3873 41.0039 34.1734 40.9 33.9374C40.8082 33.6951 40.7656 33.4353 40.775 33.1746C40.775 32.6514 40.9726 32.1496 41.3242 31.7796C41.6758 31.4097 42.1527 31.2018 42.65 31.2018C43.1473 31.2018 43.6242 31.4097 43.9759 31.7796C44.3275 32.1496 44.525 32.6514 44.525 33.1746C44.5258 33.4371 44.4747 33.6968 44.375 33.9374C44.2802 34.1722 44.1445 34.3863 43.975 34.5687C43.6207 34.934 43.1461 35.1413 42.65 35.1474Z" fill="#0E0E0E"/>
<path id="Vector_7" d="M30 60.2413C28.7691 60.2416 27.5502 59.9861 26.4133 59.4896C25.2765 58.9931 24.2439 58.2652 23.3751 57.3479L5.62505 38.6721C3.86942 36.8226 2.8833 34.3155 2.8833 31.7016C2.8833 29.0876 3.86942 26.5806 5.62505 24.7311L23.3751 6.05534C25.1329 4.20814 27.5157 3.17059 30 3.17059C32.4844 3.17059 34.8672 4.20814 36.625 6.05534L54.375 24.7311C55.2473 25.6451 55.9395 26.7314 56.4118 27.9276C56.8841 29.1238 57.1272 30.4063 57.1272 31.7016C57.1272 32.9969 56.8841 34.2794 56.4118 35.4756C55.9395 36.6718 55.2473 37.7581 54.375 38.6721L36.625 57.3479C35.7561 58.2652 34.7236 58.9931 33.5868 59.4896C32.4499 59.9861 31.231 60.2416 30 60.2413ZM30 7.10749C29.2612 7.10529 28.5293 7.25763 27.8469 7.55566C27.1645 7.85369 26.5452 8.29147 26.025 8.84355L8.27505 27.5193C7.22167 28.629 6.63 30.1332 6.63 31.7016C6.63 33.27 7.22167 34.7742 8.27505 35.8839L26.025 54.5596C27.0797 55.668 28.5094 56.2905 30 56.2905C31.4907 56.2905 32.9204 55.668 33.975 54.5596L51.725 35.8839C52.7784 34.7742 53.3701 33.27 53.3701 31.7016C53.3701 30.1332 52.7784 28.629 51.725 27.5193L33.975 8.84355C33.4549 8.29147 32.8356 7.85369 32.1532 7.55566C31.4708 7.25763 30.7389 7.10529 30 7.10749Z" fill="#0E0E0E"/>
</g>
<defs>
<filter id="filter0_d_682_1272" x="-0.116699" y="0.170593" width="62.2439" height="65.0707" filterUnits="userSpaceOnUse" color-interpolation-filters="sRGB">
<feFlood flood-opacity="0" result="BackgroundImageFix"/>
<feColorMatrix in="SourceAlpha" type="matrix" values="0 0 0 0 0 0 0 0 0 0 0 0 0 0 0 0 0 0 127 0" result="hardAlpha"/>
<feOffset dx="1" dy="1"/>
<feGaussianBlur stdDeviation="2"/>
<feComposite in2="hardAlpha" operator="out"/>
<feColorMatrix type="matrix" values="0 0 0 0 0 0 0 0 0 0 0 0 0 0 0 0 0 0 1 0"/>
<feBlend mode="normal" in2="BackgroundImageFix" result="effect1_dropShadow_682_1272"/>
<feBlend mode="normal" in="SourceGraphic" in2="effect1_dropShadow_682_1272" result="shape"/>
</filter>
</defs>
</svg>
