<svg width="36" height="36" viewBox="0 0 36 36" fill="none" xmlns="http://www.w3.org/2000/svg">
<g id="Group">
<path id="Vector" d="M6.60004 24.5167C5.31117 24.5167 4.05124 24.1345 2.97958 23.4184C1.90792 22.7024 1.07266 21.6846 0.579429 20.4938C0.0861976 19.3031 -0.0428542 17.9928 0.208593 16.7287C0.46004 15.4646 1.08069 14.3034 1.99206 13.392C2.90344 12.4807 4.0646 11.86 5.32871 11.6086C6.59281 11.3571 7.9031 11.4862 9.09387 11.9794C10.2846 12.4726 11.3024 13.3079 12.0185 14.3795C12.7345 15.4512 13.1167 16.7111 13.1167 18C13.1123 19.727 12.4243 21.382 11.2032 22.6031C9.982 23.8243 8.32702 24.5123 6.60004 24.5167ZM6.60004 13.9833C5.80562 13.9833 5.02904 14.2189 4.3685 14.6603C3.70797 15.1016 3.19314 15.7289 2.88913 16.4629C2.58512 17.1968 2.50557 18.0045 2.66056 18.7836C2.81554 19.5628 3.19809 20.2785 3.75983 20.8402C4.32157 21.402 5.03727 21.7845 5.81643 21.9395C6.59559 22.0945 7.40321 22.0149 8.13716 21.7109C8.87111 21.4069 9.49842 20.8921 9.93978 20.2315C10.3811 19.571 10.6167 18.7944 10.6167 18C10.6167 16.9347 10.1935 15.9131 9.44026 15.1598C8.68699 14.4065 7.66533 13.9833 6.60004 13.9833Z" fill="#0E0E0E"/>
<path id="Vector_2" d="M29.4001 13.9833C28.1112 13.9833 26.8513 13.6012 25.7796 12.8851C24.708 12.169 23.8727 11.1513 23.3795 9.9605C22.8862 8.76974 22.7572 7.45945 23.0086 6.19534C23.2601 4.93123 23.8807 3.77007 24.7921 2.8587C25.7035 1.94733 26.8646 1.32668 28.1288 1.07523C29.3929 0.823784 30.7031 0.952836 31.8939 1.44607C33.0847 1.9393 34.1024 2.77456 34.8185 3.84622C35.5346 4.91788 35.9168 6.17781 35.9168 7.46668C35.9124 9.19366 35.2244 10.8486 34.0032 12.0698C32.7821 13.291 31.1271 13.9789 29.4001 13.9833ZM29.4001 3.46668C28.605 3.46669 27.8277 3.70269 27.1668 4.14479C26.5059 4.58688 25.9911 5.21519 25.6876 5.95011C25.3841 6.68503 25.3055 7.4935 25.4619 8.27311C25.6182 9.05272 26.0024 9.76839 26.5658 10.3295C27.1292 10.8905 27.8465 11.2718 28.6267 11.4249C29.407 11.578 30.2151 11.496 30.9488 11.1895C31.6824 10.8829 32.3086 10.3655 32.7479 9.70275C33.1873 9.04002 33.4201 8.2618 33.4168 7.46668C33.4124 6.40429 32.9872 5.38691 32.2344 4.63724C31.4816 3.88757 30.4625 3.46667 29.4001 3.46668Z" fill="#0E0E0E"/>
<path id="Vector_3" d="M29.4001 35.0333C28.1105 35.0333 26.8499 34.6507 25.7779 33.9339C24.7059 33.2171 23.8706 32.1984 23.3779 31.0066C22.8851 29.8149 22.7571 28.5038 23.0099 27.2392C23.2627 25.9746 23.885 24.8135 24.798 23.9028C25.7111 22.9921 26.8738 22.3728 28.139 22.1232C29.4042 21.8736 30.715 22.0051 31.9055 22.5009C33.0959 22.9966 34.1125 23.8345 34.8266 24.9083C35.5406 25.9822 35.92 27.2438 35.9167 28.5333C35.9123 30.2588 35.2238 31.912 34.0022 33.1305C32.7805 34.3491 31.1255 35.0333 29.4001 35.0333ZM29.4001 24.5167C28.6057 24.5167 27.8291 24.7522 27.1685 25.1936C26.508 25.635 25.9932 26.2623 25.6892 26.9962C25.3851 27.7302 25.3056 28.5378 25.4606 29.3169C25.6156 30.0961 25.9981 30.8118 26.5599 31.3736C27.1216 31.9353 27.8373 32.3178 28.6165 32.4728C29.3956 32.6278 30.2032 32.5483 30.9372 32.2443C31.6711 31.9402 32.2985 31.4254 32.7398 30.7649C33.1812 30.1043 33.4167 29.3278 33.4167 28.5333C33.4167 27.4681 32.9936 26.4464 32.2403 25.6931C31.487 24.9399 30.4654 24.5167 29.4001 24.5167Z" fill="#0E0E0E"/>
<path id="Vector_4" d="M25.05 26.8C24.8357 26.7979 24.6247 26.7466 24.4333 26.65L11.2333 19.0834C11.0436 18.9738 10.8864 18.8157 10.7781 18.6253C10.6697 18.4349 10.614 18.2191 10.6167 18C10.6207 17.7763 10.6846 17.5578 10.8019 17.3672C10.9192 17.1767 11.0854 17.0211 11.2833 16.9167L24.9167 9.90003C25.2128 9.74753 25.5574 9.71892 25.8747 9.82051C26.1919 9.92209 26.4558 10.1455 26.6083 10.4417C26.7608 10.7379 26.7894 11.0825 26.6879 11.3997C26.5863 11.717 26.3628 11.9809 26.0667 12.1334L14.4833 18L25.6833 24.4C25.9227 24.5378 26.1097 24.7509 26.2151 25.0061C26.3205 25.2614 26.3385 25.5443 26.2661 25.8108C26.1938 26.0773 26.0353 26.3124 25.8152 26.4793C25.5952 26.6462 25.3261 26.7355 25.05 26.7334V26.8Z" fill="#0E0E0E"/>
</g>
</svg>
