<svg width="58" height="60" viewBox="0 0 58 60" fill="none" xmlns="http://www.w3.org/2000/svg">
<g id="Group" filter="url(#filter0_d_682_1252)">
<path id="Vector" d="M28 54.9864C23.1791 54.9864 18.4664 53.4822 14.458 50.6642C10.4495 47.8461 7.32533 43.8407 5.48045 39.1545C3.63556 34.4683 3.15286 29.3117 4.09337 24.3368C5.03388 19.3619 7.35538 14.7922 10.7643 11.2055C14.1732 7.61877 18.5164 5.1762 23.2447 4.18664C27.973 3.19707 32.874 3.70495 37.3279 5.64606C41.7819 7.58716 45.5887 10.8743 48.2671 15.0918C50.9454 19.3093 52.375 24.2678 52.375 29.3401C52.3684 36.1398 49.7982 42.659 45.2284 47.4671C40.6587 52.2752 34.4626 54.9794 28 54.9864ZM28 7.63943C23.9208 7.63943 19.9331 8.91215 16.5414 11.2967C13.1496 13.6812 10.5061 17.0703 8.945 21.0356C7.38394 25.0009 6.97549 29.3642 7.77131 33.5737C8.56713 37.7832 10.5315 41.6499 13.4159 44.6848C16.3004 47.7197 19.9754 49.7865 23.9763 50.6238C27.9771 51.4611 32.1241 51.0314 35.8929 49.3889C39.6616 47.7464 42.8828 44.965 45.1491 41.3964C47.4154 37.8277 48.625 33.6321 48.625 29.3401C48.6184 23.5869 46.4433 18.0713 42.5768 14.0031C38.7103 9.93494 33.4681 7.64639 28 7.63943Z" fill="#0E0E0E"/>
<path id="Vector_2" d="M28 22.1065C27.5047 22.0997 27.0316 21.8897 26.6813 21.5212C26.3311 21.1527 26.1315 20.6549 26.125 20.1338V6.98183C26.125 6.45861 26.3225 5.95683 26.6742 5.58686C27.0258 5.21689 27.5027 5.00904 28 5.00904C28.4973 5.00904 28.9742 5.21689 29.3258 5.58686C29.6775 5.95683 29.875 6.45861 29.875 6.98183V20.1338C29.8685 20.6549 29.6689 21.1527 29.3187 21.5212C28.9684 21.8897 28.4953 22.0997 28 22.1065Z" fill="#0E0E0E"/>
<path id="Vector_3" d="M28 53.6712C27.5047 53.6644 27.0316 53.4543 26.6813 53.0858C26.3311 52.7173 26.1315 52.2195 26.125 51.6984V38.5465C26.125 38.0232 26.3225 37.5215 26.6742 37.1515C27.0258 36.7815 27.5027 36.5737 28 36.5737C28.4973 36.5737 28.9742 36.7815 29.3258 37.1515C29.6775 37.5215 29.875 38.0232 29.875 38.5465V51.6984C29.8685 52.2195 29.6689 52.7173 29.3187 53.0858C28.9684 53.4543 28.4953 53.6644 28 53.6712Z" fill="#0E0E0E"/>
<path id="Vector_4" d="M19.25 31.3129H6.75C6.25272 31.3129 5.77581 31.105 5.42417 30.7351C5.07254 30.3651 4.875 29.8633 4.875 29.3401C4.875 28.8169 5.07254 28.3151 5.42417 27.9451C5.77581 27.5752 6.25272 27.3673 6.75 27.3673H19.25C19.7473 27.3673 20.2242 27.5752 20.5758 27.9451C20.9275 28.3151 21.125 28.8169 21.125 29.3401C21.125 29.8633 20.9275 30.3651 20.5758 30.7351C20.2242 31.105 19.7473 31.3129 19.25 31.3129Z" fill="#0E0E0E"/>
<path id="Vector_5" d="M49.25 31.3129H36.75C36.2527 31.3129 35.7758 31.105 35.4242 30.7351C35.0725 30.3651 34.875 29.8633 34.875 29.3401C34.875 28.8169 35.0725 28.3151 35.4242 27.9451C35.7758 27.5752 36.2527 27.3673 36.75 27.3673H49.25C49.7473 27.3673 50.2242 27.5752 50.5758 27.9451C50.9275 28.3151 51.125 28.8169 51.125 29.3401C51.125 29.8633 50.9275 30.3651 50.5758 30.7351C50.2242 31.105 49.7473 31.3129 49.25 31.3129Z" fill="#0E0E0E"/>
</g>
<defs>
<filter id="filter0_d_682_1252" x="0.625" y="0.69384" width="56.75" height="59.2925" filterUnits="userSpaceOnUse" color-interpolation-filters="sRGB">
<feFlood flood-opacity="0" result="BackgroundImageFix"/>
<feColorMatrix in="SourceAlpha" type="matrix" values="0 0 0 0 0 0 0 0 0 0 0 0 0 0 0 0 0 0 127 0" result="hardAlpha"/>
<feOffset dx="1" dy="1"/>
<feGaussianBlur stdDeviation="2"/>
<feComposite in2="hardAlpha" operator="out"/>
<feColorMatrix type="matrix" values="0 0 0 0 0 0 0 0 0 0 0 0 0 0 0 0 0 0 1 0"/>
<feBlend mode="normal" in2="BackgroundImageFix" result="effect1_dropShadow_682_1252"/>
<feBlend mode="normal" in="SourceGraphic" in2="effect1_dropShadow_682_1252" result="shape"/>
</filter>
</defs>
</svg>
