<svg width="52" height="64" viewBox="0 0 52 64" fill="none" xmlns="http://www.w3.org/2000/svg">
<g id="Group" filter="url(#filter0_d_682_1264)">
<path id="Vector" d="M40.275 59.77H9.74997C7.98397 59.7701 6.28994 59.0337 5.03885 57.7223C3.78776 56.4109 3.08158 54.6313 3.07497 52.7732V10.5555C3.06171 9.62442 3.22457 8.69984 3.55408 7.83557C3.88359 6.97131 4.37316 6.18461 4.99432 5.52127C5.61548 4.85793 6.35581 4.33118 7.17224 3.97167C7.98868 3.61217 8.86492 3.42708 9.74997 3.42719H40.275C41.1589 3.42702 42.0339 3.61226 42.849 3.97208C43.6641 4.3319 44.4028 4.85908 45.022 5.52279C45.6411 6.1865 46.1283 6.97342 46.4551 7.83755C46.7818 8.70169 46.9416 9.62569 46.925 10.5555V52.9047C46.8922 54.7375 46.1772 56.4836 44.9336 57.7674C43.69 59.0513 42.0172 59.7704 40.275 59.77ZM9.74997 7.37276C9.35629 7.36881 8.96596 7.44923 8.60278 7.60914C8.23959 7.76905 7.91116 8.00509 7.63749 8.30287C7.36382 8.60066 7.15064 8.95396 7.01095 9.34125C6.87126 9.72853 6.80798 10.1417 6.82497 10.5555V52.9047C6.85736 53.6955 7.18056 54.4421 7.72632 54.9869C8.27209 55.5317 8.9977 55.832 9.74997 55.8245H40.275C41.0441 55.8245 41.7817 55.503 42.3256 54.9308C42.8694 54.3586 43.175 53.5825 43.175 52.7732V10.5555C43.175 9.74629 42.8694 8.97019 42.3256 8.39797C41.7817 7.82575 41.0441 7.50428 40.275 7.50428L9.74997 7.37276Z" fill="#0E0E0E"/>
<path id="Vector_2" d="M45 33.5714H31.175C30.6777 33.5714 30.2008 33.3636 29.8492 32.9936C29.4975 32.6236 29.3 32.1218 29.3 31.5986C29.3 31.0754 29.4975 30.5736 29.8492 30.2036C30.2008 29.8337 30.6777 29.6258 31.175 29.6258H45C45.4973 29.6258 45.9742 29.8337 46.3258 30.2036C46.6774 30.5736 46.875 31.0754 46.875 31.5986C46.875 32.1218 46.6774 32.6236 46.3258 32.9936C45.9742 33.3636 45.4973 33.5714 45 33.5714Z" fill="#0E0E0E"/>
<path id="Vector_3" d="M18.85 33.5714H5C4.50272 33.5714 4.02581 33.3636 3.67417 32.9936C3.32254 32.6236 3.125 32.1218 3.125 31.5986C3.125 31.0754 3.32254 30.5736 3.67417 30.2036C4.02581 29.8337 4.50272 29.6258 5 29.6258H18.85C19.3473 29.6258 19.8242 29.8337 20.1758 30.2036C20.5275 30.5736 20.725 31.0754 20.725 31.5986C20.725 32.1218 20.5275 32.6236 20.1758 32.9936C19.8242 33.3636 19.3473 33.5714 18.85 33.5714Z" fill="#0E0E0E"/>
<path id="Vector_4" d="M33.4 16.1583H16.6C16.1047 16.1514 15.6315 15.9414 15.2813 15.5729C14.9311 15.2044 14.7315 14.7066 14.725 14.1855V5.29476C14.725 4.77155 14.9225 4.26976 15.2742 3.89979C15.6258 3.52982 16.1027 3.32197 16.6 3.32197H33.4C33.6471 3.31843 33.8925 3.36705 34.1215 3.46493C34.3505 3.56282 34.5585 3.70801 34.7333 3.89191C34.9081 4.07581 35.0461 4.29469 35.1391 4.53564C35.2321 4.77659 35.2783 5.03471 35.275 5.29476V14.1855C35.275 14.7087 35.0774 15.2105 34.7258 15.5804C34.3742 15.9504 33.8973 16.1583 33.4 16.1583ZM18.4 12.2127H31.45V7.37277H18.475L18.4 12.2127Z" fill="#0E0E0E"/>
<path id="Vector_5" d="M33.4 59.77H16.6C16.1195 59.7708 15.6572 59.5774 15.3083 59.2299C14.9594 58.8824 14.7506 58.4072 14.725 57.9025V49.0118C14.7315 48.4907 14.9311 47.9928 15.2813 47.6243C15.6315 47.2558 16.1047 47.0458 16.6 47.039H33.4C33.8973 47.039 34.3742 47.2468 34.7258 47.6168C35.0774 47.9868 35.275 48.4885 35.275 49.0118V57.9025C35.2555 58.4095 35.0486 58.8884 34.6983 59.2373C34.3481 59.5862 33.8822 59.7773 33.4 59.77ZM18.4 55.8245H31.45V50.9845H18.475L18.4 55.8245Z" fill="#0E0E0E"/>
<path id="Vector_6" d="M24.9999 39.8843C23.4067 39.8843 21.8493 39.3869 20.525 38.4551C19.2006 37.5232 18.1689 36.1988 17.5603 34.6496C16.9518 33.1005 16.7938 31.3961 17.1065 29.7524C17.4191 28.1087 18.1883 26.5996 19.3166 25.4161C20.4449 24.2326 21.8816 23.428 23.4448 23.1042C25.008 22.7804 26.6274 22.9519 28.0979 23.5969C29.5684 24.242 30.8239 25.3317 31.7054 26.7281C32.587 28.1244 33.0549 29.7645 33.0499 31.4408C33.0433 33.6826 32.1923 35.8302 30.6833 37.4129C29.1744 38.9956 27.1306 39.8843 24.9999 39.8843ZM24.9999 26.9165C24.1495 26.9165 23.3181 27.1819 22.611 27.679C21.9038 28.1761 21.3527 28.8827 21.0272 29.7094C20.7018 30.5361 20.6166 31.4458 20.7825 32.3234C20.9485 33.2011 21.358 34.0072 21.9594 34.6399C22.5607 35.2727 23.3269 35.7036 24.161 35.8781C24.9951 36.0527 25.8597 35.9631 26.6455 35.6207C27.4312 35.2782 28.1027 34.6983 28.5752 33.9543C29.0477 33.2103 29.2999 32.3356 29.2999 31.4408C29.2999 30.2409 28.8469 29.0901 28.0405 28.2417C27.2341 27.3932 26.1403 26.9165 24.9999 26.9165Z" fill="#0E0E0E"/>
</g>
<defs>
<filter id="filter0_d_682_1264" x="0.0742188" y="0.321793" width="51.8519" height="64.4484" filterUnits="userSpaceOnUse" color-interpolation-filters="sRGB">
<feFlood flood-opacity="0" result="BackgroundImageFix"/>
<feColorMatrix in="SourceAlpha" type="matrix" values="0 0 0 0 0 0 0 0 0 0 0 0 0 0 0 0 0 0 127 0" result="hardAlpha"/>
<feOffset dx="1" dy="1"/>
<feGaussianBlur stdDeviation="2"/>
<feComposite in2="hardAlpha" operator="out"/>
<feColorMatrix type="matrix" values="0 0 0 0 0 0 0 0 0 0 0 0 0 0 0 0 0 0 1 0"/>
<feBlend mode="normal" in2="BackgroundImageFix" result="effect1_dropShadow_682_1264"/>
<feBlend mode="normal" in="SourceGraphic" in2="effect1_dropShadow_682_1264" result="shape"/>
</filter>
</defs>
</svg>
