<svg width="60" height="60" viewBox="0 0 60 60" fill="none" xmlns="http://www.w3.org/2000/svg">
<path d="M29.856 22.088H49.824V50.552H46.176V25.352H33.312V50.792H29.856V22.088ZM8.832 25.832H28.368V29.144H8.832V25.832ZM31.536 30.152H47.904V32.936H31.536V30.152ZM31.536 37.832H47.904V40.712H31.536V37.832ZM31.536 45.704H47.904V48.728H31.536V45.704ZM17.232 20.36H20.736V50.888H17.232V20.36ZM20.208 30.536C21.744 31.736 27.216 36.872 28.416 38.12L26.112 41C24.576 38.84 20.112 33.944 18.192 32.168L20.208 30.536ZM13.968 11.336H29.376V14.456H13.968V11.336ZM32.832 11.384H51.456V14.456H32.832V11.384ZM14.832 6.488L18.336 7.352C16.512 12.584 13.68 17.864 10.752 21.32C10.08 20.744 8.592 19.736 7.728 19.304C10.752 16.136 13.344 11.336 14.832 6.488ZM33.696 6.488L37.2 7.352C35.616 12.632 32.784 17.672 29.712 20.936C29.04 20.312 27.504 19.304 26.64 18.824C29.808 15.896 32.304 11.288 33.696 6.488ZM16.848 13.688L19.824 12.584C21.072 14.744 22.464 17.768 22.944 19.64L19.776 20.984C19.344 19.064 18.096 15.992 16.848 13.688ZM36.528 13.736L39.456 12.584C41.28 14.696 43.248 17.672 44.064 19.64L40.944 20.936C40.224 19.016 38.304 15.944 36.528 13.736ZM17.184 27.512L19.824 29.048C17.76 34.808 13.584 41.768 9.888 45.704C9.408 44.84 8.4 43.64 7.584 42.92C11.184 39.56 15.216 32.984 17.184 27.512Z" fill="#0E0E0E"/>
<path d="M29.856 22.088V21.088H28.856V22.088H29.856ZM49.824 22.088H50.824V21.088H49.824V22.088ZM49.824 50.552V51.552H50.824V50.552H49.824ZM46.176 50.552H45.176V51.552H46.176V50.552ZM46.176 25.352H47.176V24.352H46.176V25.352ZM33.312 25.352V24.352H32.312V25.352H33.312ZM33.312 50.792V51.792H34.312V50.792H33.312ZM29.856 50.792H28.856V51.792H29.856V50.792ZM8.832 25.832V24.832H7.832V25.832H8.832ZM28.368 25.832H29.368V24.832H28.368V25.832ZM28.368 29.144V30.144H29.368V29.144H28.368ZM8.832 29.144H7.832V30.144H8.832V29.144ZM31.536 30.152V29.152H30.536V30.152H31.536ZM47.904 30.152H48.904V29.152H47.904V30.152ZM47.904 32.936V33.936H48.904V32.936H47.904ZM31.536 32.936H30.536V33.936H31.536V32.936ZM31.536 37.832V36.832H30.536V37.832H31.536ZM47.904 37.832H48.904V36.832H47.904V37.832ZM47.904 40.712V41.712H48.904V40.712H47.904ZM31.536 40.712H30.536V41.712H31.536V40.712ZM31.536 45.704V44.704H30.536V45.704H31.536ZM47.904 45.704H48.904V44.704H47.904V45.704ZM47.904 48.728V49.728H48.904V48.728H47.904ZM31.536 48.728H30.536V49.728H31.536V48.728ZM17.232 20.36V19.36H16.232V20.36H17.232ZM20.736 20.36H21.736V19.36H20.736V20.36ZM20.736 50.888V51.888H21.736V50.888H20.736ZM17.232 50.888H16.232V51.888H17.232V50.888ZM20.208 30.536L20.8236 29.748L20.1969 29.2584L19.5788 29.7588L20.208 30.536ZM28.416 38.12L29.1969 38.7447L29.7451 38.0595L29.1368 37.4269L28.416 38.12ZM26.112 41L25.297 41.5795L26.065 42.6595L26.8929 41.6247L26.112 41ZM18.192 32.168L17.5628 31.3908L16.6649 32.1176L17.513 32.9021L18.192 32.168ZM13.968 11.336V10.336H12.968V11.336H13.968ZM29.376 11.336H30.376V10.336H29.376V11.336ZM29.376 14.456V15.456H30.376V14.456H29.376ZM13.968 14.456H12.968V15.456H13.968V14.456ZM32.832 11.384V10.384H31.832V11.384H32.832ZM51.456 11.384H52.456V10.384H51.456V11.384ZM51.456 14.456V15.456H52.456V14.456H51.456ZM32.832 14.456H31.832V15.456H32.832V14.456ZM14.832 6.488L15.0714 5.51708L14.1534 5.29073L13.876 6.19458L14.832 6.488ZM18.336 7.352L19.2803 7.68119L19.6418 6.64404L18.5754 6.38108L18.336 7.352ZM10.752 21.32L10.1012 22.0793L10.8648 22.7338L11.515 21.9664L10.752 21.32ZM7.728 19.304L7.00464 18.6135L6.06977 19.5929L7.28079 20.1984L7.728 19.304ZM33.696 6.488L33.9354 5.51708L33.003 5.28718L32.7356 6.20947L33.696 6.488ZM37.2 7.352L38.1578 7.63935L38.4598 6.63269L37.4394 6.38108L37.2 7.352ZM29.712 20.936L29.0315 21.6688L29.7594 22.3447L30.4402 21.6214L29.712 20.936ZM26.64 18.824L25.9613 18.0896L24.9468 19.0273L26.1544 19.6982L26.64 18.824ZM16.848 13.688L16.5002 12.7504L15.4199 13.1512L15.9687 14.1643L16.848 13.688ZM19.824 12.584L20.6899 12.0837L20.2676 11.3529L19.4762 11.6464L19.824 12.584ZM22.944 19.64L23.3346 20.5606L24.1263 20.2247L23.9127 19.3916L22.944 19.64ZM19.776 20.984L18.8004 21.2035L19.0634 22.3726L20.1665 21.9046L19.776 20.984ZM36.528 13.736L36.1619 12.8054L34.8966 13.3033L35.7488 14.3628L36.528 13.736ZM39.456 12.584L40.2128 11.9304L39.7495 11.3939L39.0899 11.6534L39.456 12.584ZM44.064 19.64L44.4476 20.5635L45.3705 20.1801L44.9877 19.257L44.064 19.64ZM40.944 20.936L40.0077 21.2871L40.3713 22.2567L41.3276 21.8595L40.944 20.936ZM17.184 27.512L17.6869 26.6477L16.6493 26.0439L16.243 27.1736L17.184 27.512ZM19.824 29.048L20.7654 29.3853L21.0461 28.6021L20.3269 28.1837L19.824 29.048ZM9.888 45.704L9.01384 46.1896L9.67917 47.3872L10.617 46.3885L9.888 45.704ZM7.584 42.92L6.90168 42.1889L6.09613 42.9408L6.92238 43.6698L7.584 42.92ZM29.856 23.088H49.824V21.088H29.856V23.088ZM48.824 22.088V50.552H50.824V22.088H48.824ZM49.824 49.552H46.176V51.552H49.824V49.552ZM47.176 50.552V25.352H45.176V50.552H47.176ZM46.176 24.352H33.312V26.352H46.176V24.352ZM32.312 25.352V50.792H34.312V25.352H32.312ZM33.312 49.792H29.856V51.792H33.312V49.792ZM30.856 50.792V22.088H28.856V50.792H30.856ZM8.832 26.832H28.368V24.832H8.832V26.832ZM27.368 25.832V29.144H29.368V25.832H27.368ZM28.368 28.144H8.832V30.144H28.368V28.144ZM9.832 29.144V25.832H7.832V29.144H9.832ZM31.536 31.152H47.904V29.152H31.536V31.152ZM46.904 30.152V32.936H48.904V30.152H46.904ZM47.904 31.936H31.536V33.936H47.904V31.936ZM32.536 32.936V30.152H30.536V32.936H32.536ZM31.536 38.832H47.904V36.832H31.536V38.832ZM46.904 37.832V40.712H48.904V37.832H46.904ZM47.904 39.712H31.536V41.712H47.904V39.712ZM32.536 40.712V37.832H30.536V40.712H32.536ZM31.536 46.704H47.904V44.704H31.536V46.704ZM46.904 45.704V48.728H48.904V45.704H46.904ZM47.904 47.728H31.536V49.728H47.904V47.728ZM32.536 48.728V45.704H30.536V48.728H32.536ZM17.232 21.36H20.736V19.36H17.232V21.36ZM19.736 20.36V50.888H21.736V20.36H19.736ZM20.736 49.888H17.232V51.888H20.736V49.888ZM18.232 50.888V20.36H16.232V50.888H18.232ZM19.5924 31.324C21.077 32.4839 26.5126 37.5833 27.6952 38.8131L29.1368 37.4269C27.9194 36.1607 22.411 30.9881 20.8236 29.748L19.5924 31.324ZM27.6351 37.4953L25.3311 40.3753L26.8929 41.6247L29.1969 38.7447L27.6351 37.4953ZM26.927 40.4205C25.3418 38.1914 20.8282 33.2443 18.871 31.4339L17.513 32.9021C19.3958 34.6437 23.8102 39.4886 25.297 41.5795L26.927 40.4205ZM18.8212 32.9452L20.8372 31.3132L19.5788 29.7588L17.5628 31.3908L18.8212 32.9452ZM13.968 12.336H29.376V10.336H13.968V12.336ZM28.376 11.336V14.456H30.376V11.336H28.376ZM29.376 13.456H13.968V15.456H29.376V13.456ZM14.968 14.456V11.336H12.968V14.456H14.968ZM32.832 12.384H51.456V10.384H32.832V12.384ZM50.456 11.384V14.456H52.456V11.384H50.456ZM51.456 13.456H32.832V15.456H51.456V13.456ZM33.832 14.456V11.384H31.832V14.456H33.832ZM14.5926 7.45892L18.0966 8.32292L18.5754 6.38108L15.0714 5.51708L14.5926 7.45892ZM17.3917 7.02281C15.5972 12.1703 12.8186 17.3337 9.98902 20.6736L11.515 21.9664C14.5414 18.3942 17.4268 12.9977 19.2803 7.68119L17.3917 7.02281ZM11.4028 20.5607C10.6732 19.9354 9.11744 18.8807 8.17521 18.4096L7.28079 20.1984C8.06656 20.5913 9.48681 21.5526 10.1012 22.0793L11.4028 20.5607ZM8.45136 19.9945C11.6066 16.6889 14.2658 11.7409 15.788 6.78142L13.876 6.19458C12.4222 10.9311 9.89736 15.5831 7.00464 18.6135L8.45136 19.9945ZM33.4566 7.45892L36.9606 8.32292L37.4394 6.38108L33.9354 5.51708L33.4566 7.45892ZM36.2422 7.06465C34.6957 12.2195 31.9338 17.1163 28.9838 20.2506L30.4402 21.6214C33.6342 18.2277 36.5363 13.0445 38.1578 7.63935L36.2422 7.06465ZM30.3925 20.2032C29.6337 19.4987 28.0167 18.4449 27.1256 17.9498L26.1544 19.6982C26.9913 20.1631 28.4463 21.1253 29.0315 21.6688L30.3925 20.2032ZM27.3187 19.5584C30.6582 16.4719 33.2304 11.684 34.6564 6.76652L32.7356 6.20947C31.3777 10.892 28.9578 15.3201 25.9613 18.0896L27.3187 19.5584ZM17.1958 14.6256L20.1718 13.5216L19.4762 11.6464L16.5002 12.7504L17.1958 14.6256ZM18.9581 13.0843C20.1858 15.209 21.5278 18.1429 21.9753 19.8884L23.9127 19.3916C23.4002 17.3931 21.9582 14.2789 20.6899 12.0837L18.9581 13.0843ZM22.5535 18.7194L19.3855 20.0634L20.1665 21.9046L23.3346 20.5606L22.5535 18.7194ZM20.7516 20.7645C20.293 18.7261 19.0023 15.5656 17.7273 13.2117L15.9687 14.1643C17.1897 16.4184 18.395 19.4019 18.8004 21.2035L20.7516 20.7645ZM36.8941 14.6666L39.8221 13.5146L39.0899 11.6534L36.1619 12.8054L36.8941 14.6666ZM38.6992 13.2376C40.4798 15.2994 42.3781 18.1849 43.1403 20.023L44.9877 19.257C44.1179 17.1591 42.0802 14.0926 40.2128 11.9304L38.6992 13.2376ZM43.6804 18.7165L40.5604 20.0125L41.3276 21.8595L44.4476 20.5635L43.6804 18.7165ZM41.8803 20.5849C41.1083 18.5262 39.1175 15.3598 37.3072 13.1092L35.7488 14.3628C37.4905 16.5282 39.3397 19.5058 40.0077 21.2871L41.8803 20.5849ZM16.6811 28.3763L19.3211 29.9123L20.3269 28.1837L17.6869 26.6477L16.6811 28.3763ZM18.8826 28.7107C16.86 34.3553 12.7517 41.1935 9.15902 45.0195L10.617 46.3885C14.4163 42.3425 18.66 35.2607 20.7654 29.3853L18.8826 28.7107ZM10.7622 45.2184C10.2168 44.2367 9.1299 42.9504 8.24562 42.1702L6.92238 43.6698C7.6701 44.3296 8.59921 45.4433 9.01384 46.1896L10.7622 45.2184ZM8.26632 43.6511C12.0085 40.1583 16.1167 33.4345 18.125 27.8504L16.243 27.1736C14.3153 32.5335 10.3595 38.9617 6.90168 42.1889L8.26632 43.6511Z" fill="#0E0E0E"/>
</svg>
